<svg width="35" height="35" viewBox="0 0 35 35" fill="none" xmlns="http://www.w3.org/2000/svg">
<path d="M17.5 0C7.84558 0 0 7.84558 0 17.5C0 27.1544 7.84558 35 17.5 35C27.1544 35 35 27.1544 35 17.5C35 7.84558 27.1544 0 17.5 0ZM17.5 1.52174C26.3317 1.52174 33.4783 8.66833 33.4783 17.5C33.4783 17.5543 33.4743 17.6078 33.4738 17.662C32.9871 17.6171 32.4248 17.5744 31.7098 17.549C30.6989 17.5132 29.4245 17.5236 27.9798 17.5951C28.0334 17.222 28.0709 16.8437 28.0719 16.4553C28.1456 15.0305 27.6671 13.6975 26.889 12.5202C27.077 11.8706 27.2975 11.0442 27.3527 10.1068C27.4155 9.03831 27.3233 7.85352 26.4655 7.0529L26.2455 6.84783H25.9454C23.9039 6.84783 22.5065 7.70244 21.6521 8.37997C20.4183 7.90241 19.031 7.6087 17.5 7.6087C15.9603 7.6087 14.5596 7.90651 13.2751 8.38294C12.4211 7.70509 11.0226 6.84783 8.97886 6.84783H8.68015L8.46022 7.05142C7.62464 7.82731 7.54766 8.9796 7.59978 10.0429C7.64574 10.9805 7.85349 11.8332 8.03817 12.5142C7.24689 13.7146 6.77204 15.082 6.77204 16.4345C6.77204 16.8238 6.80824 17.2033 6.8612 17.5773C5.48725 17.5135 4.26247 17.5013 3.29017 17.5357C2.57517 17.561 2.01284 17.6033 1.5262 17.6486C1.52574 17.5989 1.52174 17.5498 1.52174 17.5C1.52174 8.66833 8.66833 1.52174 17.5 1.52174ZM9.43211 8.46913C10.9672 8.6146 12.1222 9.30009 12.6569 9.77539L13.0135 10.0904L13.4534 9.91062C14.6567 9.41516 15.9988 9.13043 17.5 9.13043C19.0012 9.13043 20.3437 9.41658 21.4559 9.90319L21.9017 10.0994L22.2658 9.77539C22.8007 9.29992 23.9576 8.61423 25.4936 8.46913C25.6978 8.80771 25.8753 9.2892 25.8324 10.0176C25.7811 10.8894 25.5479 11.8389 25.3717 12.4028L25.2573 12.7698L25.4847 13.0804C26.2375 14.107 26.6214 15.2181 26.5561 16.3929L26.5546 16.4137V16.4345C26.5546 18.3332 25.8709 19.8529 24.4147 20.9789C22.9585 22.1049 20.6596 22.8261 17.4242 22.8261C14.1888 22.8261 11.8885 22.1049 10.4322 20.9789C8.97601 19.8529 8.29378 18.3332 8.29378 16.4345C8.29378 15.32 8.69621 14.094 9.43954 13.0804L9.66245 12.7773L9.55545 12.4161C9.37914 11.8167 9.16302 10.8455 9.12003 9.96858C9.08428 9.23919 9.25691 8.77817 9.43211 8.46913ZM5.23841 18.2772C5.77611 18.2841 6.39241 18.3131 7.00981 18.3441C7.0688 18.5813 7.13606 18.8147 7.21786 19.0425C4.70139 19.0956 2.81882 19.3487 1.65846 19.5656C1.6094 19.1849 1.57032 18.8011 1.54849 18.4124C2.40603 18.3311 3.61489 18.2565 5.23841 18.2772ZM29.7616 18.2891C31.384 18.2685 32.5924 18.3432 33.45 18.4243C33.4282 18.8074 33.3898 19.1858 33.3415 19.5612C32.1397 19.3407 30.2063 19.0877 27.6246 19.047C27.7047 18.8237 27.7715 18.5943 27.8297 18.3619C28.5108 18.3254 29.1752 18.2966 29.7616 18.2891ZM7.54182 19.7975C7.99586 20.7073 8.64463 21.5197 9.50195 22.1826C10.6741 23.089 12.198 23.7223 14.0583 24.061C13.8149 24.3111 13.5935 24.5857 13.397 24.8754L13.3509 24.8353C13.3551 24.8305 12.9726 25.0219 12.4013 25.073C11.8299 25.1242 11.1251 25.1087 10.5006 25.1087C9.56853 25.1087 9.15799 24.6683 8.50183 23.8663C8.13848 23.3766 7.69551 22.98 7.26541 22.679C6.82502 22.3707 6.44933 22.1531 5.98442 22.0756L5.922 22.0652H5.8581C5.50303 22.0652 5.15944 22.0909 4.83865 22.4575C4.67826 22.6408 4.56771 22.9802 4.63952 23.2675C4.71133 23.5547 4.89304 23.7312 5.05562 23.8396C6.09552 24.5329 6.2793 25.905 6.93105 27.1253C7.53968 28.3381 8.85322 28.913 10.1959 28.913H12.1739V32.5673C6.82333 30.6787 2.78834 26.0252 1.77437 20.3176C2.93919 20.0982 4.88976 19.8344 7.54182 19.7975ZM27.3021 19.8034C30.0129 19.8266 32.0182 20.09 33.2271 20.3131C32.2145 26.0229 28.1781 30.6782 22.8261 32.5673V28.6084C22.8261 27.4027 22.4302 26.0733 21.7413 24.9645C21.5321 24.6279 21.286 24.3096 21.0116 24.0239C22.7732 23.6759 24.2203 23.0535 25.3465 22.1826C26.2019 21.5211 26.8493 20.7112 27.3021 19.8034ZM16.5103 24.4236H18.6413C19.2598 24.4236 19.9199 24.9165 20.4484 25.767C20.9769 26.6176 21.3043 27.7597 21.3043 28.6084V33.0206C20.085 33.3179 18.8116 33.4783 17.5 33.4783C16.1884 33.4783 14.915 33.3179 13.6957 33.0206V28.6084C13.6957 27.7785 14.0516 26.639 14.6155 25.7849C15.1795 24.9307 15.8918 24.4236 16.5103 24.4236ZM7.8435 25.3227C8.50224 26.006 9.29975 26.6304 10.5006 26.6304C11.0934 26.6304 11.8334 26.6518 12.5365 26.5888C12.539 26.5886 12.5414 26.5876 12.5439 26.5873C12.4513 26.8536 12.3822 27.1216 12.324 27.3913H10.1959C9.25754 27.3913 8.59461 27.0523 8.28932 26.4417L8.28337 26.4313L8.27891 26.4224C8.15383 26.19 7.98962 25.7254 7.8435 25.3227Z" fill="white"/>
</svg>
