<svg width="74" height="70" viewBox="0 0 74 70" fill="none" xmlns="http://www.w3.org/2000/svg">
<path d="M13.32 9.79999L17.76 57.4L38.48 63L59.2 57.4C60.68 41.5338 62.16 25.6662 63.64 9.79999H13.32ZM16.5517 12.6H60.4083L56.4308 55.2371L38.48 60.0879L20.5292 55.2371L16.5517 12.6ZM27.4552 21L26.033 37.8H45.2585L44.6515 44.8L38.48 45.6668L32.3837 44.8L32.1149 42H26.403L26.9811 49L38.4656 51.8L49.9645 49L51.43 32.2H32.693L33.167 26.6H45.5389L45.88 29.4H51.3549L50.32 21H27.4552Z" fill="white"/>
</svg>
