<svg width="51" height="54" viewBox="0 0 51 54" fill="none" xmlns="http://www.w3.org/2000/svg">
<path d="M0.320007 0.799988L4.76001 48.4L25.48 54L46.2 48.4C47.68 32.5338 49.16 16.6662 50.64 0.799988H0.320007ZM3.55173 3.59999H47.4083L43.4308 46.2371L25.48 51.0879L7.52923 46.2371L3.55173 3.59999ZM14.4552 12L13.033 28.8H32.2585L31.6515 35.8L25.48 36.6668L19.3837 35.8L19.1149 33H13.403L13.9811 40L25.4656 42.8L36.9645 40L38.43 23.2H19.693L20.167 17.6H32.5389L32.88 20.4H38.3549L37.32 12H14.4552Z" fill="white"/>
</svg>
