<svg width="54" height="54" viewBox="0 0 54 54" fill="none" xmlns="http://www.w3.org/2000/svg">
<path d="M8.25016 0C3.72292 0 0.000225016 3.72273 0.000225016 8.25V33.8379C-0.00399156 34.136 0.0510906 34.4321 0.162271 34.7087C0.273451 34.9854 0.438511 35.2372 0.647859 35.4496C0.857208 35.6619 1.10667 35.8305 1.38174 35.9456C1.65682 36.0607 1.95203 36.1199 2.25021 36.1199C2.54838 36.1199 2.84359 36.0607 3.11867 35.9456C3.39374 35.8305 3.6432 35.6619 3.85255 35.4496C4.0619 35.2372 4.22696 34.9854 4.33814 34.7087C4.44932 34.4321 4.5044 34.136 4.50019 33.8379V8.25C4.50019 6.17727 6.17745 4.5 8.25016 4.5H45.7498C47.8225 4.5 49.4998 6.17727 49.4998 8.25V10.1162C49.4956 10.4144 49.5507 10.7104 49.6618 10.9871C49.773 11.2637 49.9381 11.5156 50.1474 11.7279C50.3568 11.9402 50.6062 12.1088 50.8813 12.2239C51.1564 12.339 51.4516 12.3983 51.7498 12.3983C52.048 12.3983 52.3432 12.339 52.6182 12.2239C52.8933 12.1088 53.1428 11.9402 53.3521 11.7279C53.5615 11.5156 53.7265 11.2637 53.8377 10.9871C53.9489 10.7104 54.004 10.4144 53.9998 10.1162V8.25C53.9998 3.72273 50.2771 0 45.7498 0H8.25016ZM51.7146 16.6436C51.1184 16.6529 50.5503 16.8985 50.135 17.3264C49.7197 17.7543 49.4912 18.3295 49.4998 18.9258V45.75C49.4998 47.8227 47.8225 49.5 45.7498 49.5H8.25016C6.17745 49.5 4.50019 47.8227 4.50019 45.75V43.1162C4.5044 42.8181 4.44932 42.522 4.33814 42.2454C4.22696 41.9687 4.0619 41.7169 3.85255 41.5045C3.6432 41.2922 3.39374 41.1236 3.11867 41.0085C2.84359 40.8934 2.54838 40.8342 2.25021 40.8342C1.95203 40.8342 1.65682 40.8934 1.38174 41.0085C1.10667 41.1236 0.857208 41.2922 0.647859 41.5045C0.438511 41.7169 0.273451 41.9687 0.162271 42.2454C0.0510906 42.522 -0.00399156 42.8181 0.000225016 43.1162V45.75C0.000225016 50.2773 3.72292 54 8.25016 54H45.7498C50.2771 54 53.9998 50.2773 53.9998 45.75V18.9258C54.0041 18.6246 53.9479 18.3257 53.8346 18.0466C53.7212 17.7676 53.553 17.5142 53.3399 17.3013C53.1268 17.0885 52.8731 16.9206 52.594 16.8076C52.3148 16.6946 52.0158 16.6388 51.7146 16.6436ZM24.5332 24.6006V39.0938C24.5332 41.3183 23.6901 41.8887 22.2276 41.8887C20.6991 41.8887 19.6336 40.9378 18.9346 39.6973L15.3106 41.8887C16.3591 44.1102 18.9331 46.5 22.4971 46.5C26.4421 46.5 29.1445 44.4019 29.1445 39.7939V24.6006H24.5332ZM38.8886 24.6006C34.9601 24.6006 32.4462 27.1117 32.4462 30.4102C32.4462 33.9907 34.5559 35.6856 37.7284 37.0371L38.83 37.5088C40.8355 38.3848 41.8241 38.9193 41.8241 40.4268C41.8241 41.6853 40.8663 42.5977 39.0438 42.5977C36.8749 42.5977 35.8506 41.122 34.9072 39.583L31.4502 41.8887C32.7416 44.4402 35.0619 46.5 39.1464 46.5C43.3238 46.5 46.4324 44.3311 46.4324 40.3711C46.4324 36.6976 44.3257 35.0634 40.5878 33.4629L39.4862 32.9912C37.5992 32.1752 36.7821 31.6423 36.7821 30.3223C36.7821 29.2558 37.6001 28.4385 38.8886 28.4385C40.1516 28.4385 40.9641 28.9708 41.7186 30.3223L45.1434 28.1221C43.6944 25.5736 41.6845 24.6006 38.8886 24.6006Z" fill="white"/>
</svg>
