<svg width="35" height="35" viewBox="0 0 35 35" fill="none" xmlns="http://www.w3.org/2000/svg">
<path d="M4.16667 0C1.8754 0 0 1.8754 0 4.16667V30.8333C0 33.1246 1.8754 35 4.16667 35H30.8333C33.1246 35 35 33.1246 35 30.8333V4.16667C35 1.8754 33.1246 0 30.8333 0H4.16667ZM4.16667 1.66667H30.8333C32.2237 1.66667 33.3333 2.77626 33.3333 4.16667V30.8333C33.3333 32.2237 32.2237 33.3333 30.8333 33.3333H4.16667C2.77626 33.3333 1.66667 32.2237 1.66667 30.8333V4.16667C1.66667 2.77626 2.77626 1.66667 4.16667 1.66667ZM8.33333 5.8431C7.42065 5.8431 6.59935 6.1159 5.99121 6.6276C5.38307 7.13931 5.00977 7.90376 5.00977 8.72233C5.00977 10.2783 6.3594 11.4913 8.07617 11.6113L8.07943 11.613C8.16123 11.6408 8.24692 11.6557 8.33333 11.6569C10.2275 11.6569 11.6569 10.3301 11.6569 8.72233C11.6567 8.70767 11.6562 8.69302 11.6553 8.67838C11.5705 7.09486 10.1587 5.8431 8.33333 5.8431ZM8.33333 7.49023C9.49353 7.49023 9.95164 8.00837 10.0016 8.74349C9.9915 9.45703 9.55008 10.0098 8.33333 10.0098C7.17883 10.0098 6.6569 9.41852 6.6569 8.72233C6.6569 8.37424 6.78392 8.11191 7.05078 7.88737C7.31764 7.66282 7.74602 7.49023 8.33333 7.49023ZM5.83333 12.5C5.61233 12.5 5.40038 12.5878 5.2441 12.7441C5.08783 12.9004 5.00002 13.1123 5 13.3333V29.1667C5.00002 29.3877 5.08783 29.5996 5.2441 29.7559C5.40038 29.9122 5.61233 30 5.83333 30H10.8333C11.0543 30 11.2663 29.9122 11.4226 29.7559C11.5788 29.5996 11.6666 29.3877 11.6667 29.1667V24.279V13.3333C11.6666 13.1123 11.5788 12.9004 11.4226 12.7441C11.2663 12.5878 11.0543 12.5 10.8333 12.5H5.83333ZM13.3333 12.5C13.1123 12.5 12.9004 12.5878 12.7441 12.7441C12.5878 12.9004 12.5 13.1123 12.5 13.3333V29.1667C12.5 29.3877 12.5878 29.5996 12.7441 29.7559C12.9004 29.9122 13.1123 30 13.3333 30H18.3333C18.5543 30 18.7663 29.9122 18.9226 29.7559C19.0788 29.5996 19.1666 29.3877 19.1667 29.1667V20.8333C19.1667 20.1419 19.3553 19.4542 19.6875 19.0039C20.0197 18.5536 20.4387 18.2834 21.2354 18.2975C22.0568 18.3117 22.4917 18.5931 22.8206 19.0348C23.1496 19.4766 23.3333 20.1389 23.3333 20.8333V29.1667C23.3334 29.3877 23.4212 29.5996 23.5774 29.7559C23.7337 29.9122 23.9457 30 24.1667 30H29.1667C29.3877 30 29.5996 29.9122 29.7559 29.7559C29.9122 29.5996 30 29.3877 30 29.1667V20.2181C30 17.7502 29.269 15.7953 28.0159 14.4727C26.7629 13.15 25.0201 12.5 23.1771 12.5C21.4254 12.5 20.0924 13.0874 19.1667 13.6865V13.3333C19.1666 13.1123 19.0788 12.9004 18.9226 12.7441C18.7663 12.5878 18.5543 12.5 18.3333 12.5H13.3333ZM6.66667 14.1667H10V24.279V28.3333H6.66667V14.1667ZM14.1667 14.1667H17.5V15.4671C17.5001 15.6419 17.555 15.8122 17.6571 15.954C17.7593 16.0957 17.9034 16.2018 18.0691 16.2573C18.2348 16.3127 18.4138 16.3146 18.5806 16.2628C18.7475 16.2109 18.8939 16.108 18.999 15.9684C18.999 15.9684 20.3077 14.1667 23.1771 14.1667C24.6382 14.1667 25.8911 14.6522 26.8066 15.6185C27.7221 16.5848 28.3333 18.0735 28.3333 20.2181V28.3333H25V20.8333C25 19.8611 24.7671 18.8559 24.1585 18.0387C23.55 17.2216 22.5265 16.6526 21.2646 16.6309C19.9963 16.6083 18.9563 17.1892 18.3464 18.0159C17.7364 18.8427 17.5 19.8581 17.5 20.8333V28.3333H14.1667V14.1667Z" fill="white"/>
</svg>
