
<svg width="53" height="64" viewBox="0 0 53 64" fill="none" xmlns="http://www.w3.org/2000/svg">
<path d="M23.5059 9.31168e-05C22.5336 0.00633408 21.5713 0.330149 20.6955 0.862215C19.5278 1.57164 18.4627 2.64117 17.4684 3.98435C15.48 6.6707 13.7759 10.4752 12.6162 14.9227L12.7352 14.958L5.48146 17.4411C5.24334 17.5227 5.03211 17.6736 4.87226 17.8762C4.71241 18.0789 4.61049 18.325 4.5783 18.586L0.0107276 55.9184C-0.0321139 56.2701 0.0543461 56.6258 0.252472 56.9128C0.450598 57.1999 0.745463 57.3967 1.07693 57.4631L33.6503 63.9766C33.7467 63.9952 33.8448 64.0025 33.9427 63.9984C34.0582 64.0042 34.1739 63.9942 34.2869 63.9685L51.962 59.8564C52.2878 59.7804 52.5744 59.578 52.7644 59.2896C52.9544 59.0012 53.0338 58.648 52.9868 58.3008C52.9868 58.3008 51.4389 47.014 49.8865 35.6871C49.1103 30.0236 48.3316 24.3488 47.7464 20.0709C47.4538 17.932 47.2097 16.1415 47.0373 14.8765C46.9511 14.2439 46.8825 13.7446 46.8354 13.397C46.8119 13.2232 46.7936 13.0851 46.7811 12.9918C46.7686 12.8984 46.7517 12.7441 46.7656 12.8803C46.751 12.7395 46.7161 12.602 46.6621 12.4723C46.3607 11.7458 45.7206 11.3177 45.3086 11.1696C45.1704 11.1195 45.0252 11.0938 44.879 11.0935C45.042 11.0935 44.8479 11.0921 44.7134 11.0826C44.5789 11.073 44.3934 11.0586 44.1751 11.0418C43.7385 11.0082 43.1719 10.9617 42.6121 10.9167C41.7409 10.8466 41.2258 10.8056 40.8885 10.778C40.6516 10.5231 40.2969 10.1386 39.6671 9.46712C39.2618 9.03495 38.845 8.59105 38.5025 8.23241C38.1969 7.91232 38.0216 7.72914 37.8116 7.53618C37.5261 7.23497 37.1971 7.02315 36.7842 6.94602C36.7834 6.94587 36.7824 6.94617 36.7816 6.94602C36.6943 6.92295 36.605 6.90928 36.5151 6.90523C36.4021 6.90098 36.289 6.91195 36.1786 6.93786C36.1358 6.94744 36.0935 6.95924 36.0518 6.97322C36.0449 6.97497 36.038 6.97679 36.0311 6.97866L33.6529 7.79455C33.295 6.3597 32.8046 5.08973 32.1209 4.05506C31.3365 2.86811 30.2539 1.95565 28.9378 1.65907C28.3094 1.5177 27.6812 1.5638 27.0771 1.72434C26.3621 0.920845 25.4975 0.332852 24.4789 0.103439C24.1556 0.0307384 23.83 -0.0019872 23.5059 9.31168e-05ZM23.5059 2.77955C23.6501 2.77933 23.7877 2.79563 23.9225 2.82579C24.1523 2.87753 24.3806 2.99464 24.6057 3.1467C24.0364 3.65389 23.4961 4.24761 22.978 4.92806C21.4075 6.9904 20.0144 9.78645 18.8426 12.8667L15.6906 13.9463C16.7424 10.5486 18.1131 7.6489 19.5594 5.69499C20.4034 4.55474 21.2649 3.73239 22.0231 3.27181C22.5909 2.92681 23.0733 2.78023 23.5059 2.77955ZM28.679 4.48476C29.1098 4.66189 29.5272 5.01183 29.9445 5.64332C30.4095 6.34693 30.8239 7.38585 31.1297 8.65667L29.7685 9.12445C29.5647 7.38962 29.2079 5.83001 28.679 4.48476ZM26.1766 5.40943C26.6595 6.59434 27.0236 8.16041 27.2014 10.0029L22.2016 11.7163C23.0949 9.71611 24.0714 7.94809 25.0457 6.66862C25.4313 6.16218 25.8109 5.75377 26.1766 5.40943ZM35.0296 10.2531L32.7471 60.9606L2.79785 54.9719L7.09887 19.8153L35.0296 10.2531ZM37.6356 11.2675C37.6868 11.322 37.7295 11.3681 37.7805 11.4225C38.585 12.2803 39.3436 13.0978 39.3436 13.0978C39.5682 13.3399 39.869 13.4878 40.1898 13.5139C40.1898 13.5139 41.2874 13.6031 42.4102 13.6934C42.9716 13.7386 43.5389 13.7845 43.981 13.8185C44.075 13.8258 44.1351 13.8287 44.2165 13.8348C44.2636 14.1825 44.3296 14.6575 44.4132 15.2708C44.5858 16.5368 44.8322 18.3289 45.1249 20.468C45.7102 24.7463 46.4862 30.4205 47.2624 36.0841C48.7271 46.771 50.0262 56.2496 50.1867 57.4196L35.4049 60.8545L37.6356 11.2675ZM23.5344 20.8406C19.4322 20.8428 16.1942 22.3468 14.0473 24.6943C11.8988 27.0435 10.8487 30.1719 10.8487 33.3128C10.8487 37.126 12.7821 39.3889 14.4096 40.8543C15.2233 41.587 15.9539 42.1835 16.4048 42.7227C16.8557 43.262 17.044 43.6447 17.044 44.292C17.044 44.4642 16.9594 44.766 16.8215 44.9392C16.6835 45.1124 16.5509 45.2357 16.0943 45.2357C15.3393 45.2357 14.1413 44.7094 13.2114 44.1016C12.2815 43.4938 11.6354 42.8941 11.6354 42.8941C11.4685 42.7391 11.2672 42.6308 11.05 42.5792C10.8327 42.5276 10.6066 42.5344 10.3926 42.5989C10.1785 42.6634 9.98336 42.7835 9.82516 42.9483C9.66696 43.113 9.55082 43.317 9.48747 43.5413L8.00462 48.7821C7.94421 48.996 7.93359 49.222 7.97368 49.4412C8.01376 49.6603 8.10336 49.8661 8.23494 50.0413C8.23494 50.0413 11.4834 54.2551 17.5771 54.2567C20.2085 54.2567 22.5957 53.155 24.2641 51.2161C25.9326 49.2773 26.8753 46.546 26.8753 43.3727C26.8753 39.2035 24.5995 36.5823 22.595 34.882C21.5927 34.0319 20.645 33.3514 20.0408 32.7852C19.4365 32.219 19.298 31.9079 19.298 31.7218C19.298 31.581 19.3325 31.1968 19.5361 30.9141C19.7398 30.6314 20.1224 30.2451 21.534 30.2451C23.402 30.2451 25.0819 31.1725 25.0819 31.1725C25.2529 31.2703 25.4424 31.3274 25.6367 31.3395C25.8311 31.3517 26.0256 31.3187 26.2065 31.2429C26.3874 31.1671 26.5501 31.0503 26.6831 30.9009C26.8162 30.7514 26.9162 30.573 26.9762 30.3783L29.0853 23.5439C29.1775 23.2452 29.1708 22.9226 29.0666 22.6284C28.9623 22.3341 28.7664 22.0856 28.5108 21.923C28.5108 21.923 27.9627 21.5884 27.1263 21.3247C26.2923 21.0618 25.0843 20.8223 23.5344 20.8406ZM23.5577 23.6201C24.7458 23.6049 25.5699 23.7901 26.1688 23.9655L24.8982 28.0857C24.0312 27.7734 22.8544 27.4602 21.534 27.4602C19.5522 27.4602 18.1519 28.2236 17.4244 29.2334C16.697 30.2432 16.6481 31.2959 16.6481 31.7218C16.6481 33.094 17.4593 34.1006 18.2758 34.8657C19.0924 35.6309 20.0388 36.2928 20.931 37.0496C22.7153 38.5631 24.2253 40.2121 24.2253 43.3727C24.2253 45.9726 23.4732 47.9844 22.3 49.3477C21.1267 50.7111 19.5262 51.4718 17.5771 51.4718C13.2622 51.4707 11.3167 49.3628 10.784 48.7331L11.4956 46.2202C11.6612 46.3383 11.6262 46.3439 11.8114 46.4649C12.9405 47.2029 14.4113 48.0206 16.0943 48.0206C17.2515 48.0206 18.2575 47.4736 18.8529 46.726C19.4484 45.9785 19.694 45.1126 19.694 44.292C19.694 42.9028 19.1054 41.7339 18.3949 40.8843C17.6844 40.0346 16.8679 39.4029 16.1331 38.7412C14.6634 37.4179 13.4986 36.2279 13.4986 33.3128C13.4986 30.8227 14.3273 28.4102 15.9597 26.6253C17.5921 24.8403 20.0379 23.6228 23.5421 23.6228C23.5473 23.6219 23.5525 23.621 23.5577 23.6201Z" fill="white"/>
</svg>
