<svg width="58" height="58" viewBox="0 0 58 58" fill="none" xmlns="http://www.w3.org/2000/svg">
<path d="M29 0C12.9841 0 0 12.9841 0 29C0 45.0159 12.9841 58 29 58C45.0159 58 58 45.0159 58 29C58 12.9841 45.0159 0 29 0ZM29 5.27273C34.8517 5.27273 40.1995 7.40186 44.3367 10.9136C42.4691 11.4131 41.2112 13.2022 41.2112 15.1333C41.2112 17.1726 42.3906 18.8946 43.6416 20.9339C44.5854 22.579 45.6807 24.6945 45.6807 27.7488C45.6807 29.8684 45.0548 32.5266 43.8012 35.7377L41.3322 43.984L32.3984 17.4093C33.8853 17.3289 35.2279 17.175 35.2279 17.175C36.5593 17.0155 36.4062 15.0621 35.0708 15.1359C35.0708 15.1359 31.0661 15.45 28.4825 15.45C26.0571 15.45 21.9766 15.1359 21.9766 15.1359C20.6465 15.0568 20.4842 17.0959 21.8195 17.175C21.8195 17.175 23.0794 17.3303 24.4147 17.4041L28.2611 27.9624L22.8545 44.19L13.8538 17.4093C15.342 17.3289 16.6807 17.175 16.6807 17.175C18.012 17.0155 17.8589 15.0621 16.5236 15.1359C16.5236 15.1359 12.5189 15.45 9.93528 15.45C9.81963 15.45 9.67725 15.4474 9.54137 15.4449C13.8295 9.30086 20.9394 5.27273 29 5.27273ZM50.8556 19.747C52.0611 22.5905 52.7273 25.717 52.7273 29C52.7273 37.3235 48.4329 44.633 41.9475 48.868L48.9787 28.5392C50.3766 25.0371 50.8481 22.2366 50.8556 19.747ZM6.92818 20.334L17.7156 49.8772C10.3055 45.8633 5.27273 38.0193 5.27273 29C5.27273 25.9379 5.87195 23.0212 6.92818 20.334ZM29.4351 31.1575L36.8241 51.3808C34.3714 52.2385 31.7454 52.7273 29 52.7273C26.6875 52.7273 24.458 52.3813 22.3447 51.7644L29.4351 31.1575Z" fill="white"/>
</svg>
